:SAMPLES-PER-SECOND 24
:FULLY-SPECIFIED
:DEGREES
258
root  -0.282397 36.9103 15.7452 179.809 -22.4291 179.931
RightUpLeg  -30.1547 -11.4438 -11.6752
RightLeg  3.03306 -13.3035 5.39301
RightFoot  -2.31711 -0.794663 9.81531
RightToes  -1.46203e-006 3.27826e-006 1.63871e-007
Spine  -0.175515 -2.35931 -8.42909
Spine1  13.6054 -3.84472 4.70569
HEad  -10.3773 -6.56207 6.62638
LeftShoulder1  1.14937 -2.986 -10.4307
LeftArm  9.85724 -54.4155 -57.0997
LeftForeArm  29.7932 -71.0261 -31.6562
LeftHand  -0.318103 3.88376 24.1532
RightShoulder  1.5878 3.13924 17.3263
RightArm  -30.9567 20.6848 22.875
RightForeArm  152.666 71.4662 148.706
RightHand  -0.082916 -4.91685 -17.4182
LeftUpLeg  23.1922 5.04665 2.84532
LeftLeg  9.1929 10.5825 -1.18577
LeftFoot  -25.084 -1.48418 -13.4538
LeftToes  1.24767e-006 1.47042e-008 1.32732e-009
259
root  -0.365274 36.5005 13.9622 179.626 -18.0992 -179.831
RightUpLeg  -30.7962 -11.2515 -7.8561
RightLeg  4.56381 -16.7853 5.82099
RightFoot  -1.16569 -0.665219 7.37162
RightToes  -1.46203e-006 3.27826e-006 1.63871e-007
Spine  -1.82911 -3.81204 -10.2954
Spine1  12.6362 -5.75866 6.56216
HEad  -6.77441 -1.67195 5.18377
LeftShoulder1  0.843792 -2.51623 -6.3069
LeftArm  4.91796 -67.5439 -60.9654
LeftForeArm  28.0287 -68.9884 -27.7051
LeftHand  -0.58017 2.77084 25.4758
RightShoulder  1.37516 2.6015 15.8346
RightArm  -33.6979 20.6299 22.2866
RightForeArm  157.476 67.6589 154.764
RightHand  -0.144937 -4.56386 -18.9368
LeftUpLeg  26.6942 5.06055 2.4977
LeftLeg  9.02957 12.601 -0.848768
LeftFoot  -23.9648 -1.73759 -16.898
LeftToes  1.24767e-006 1.47042e-008 1.32732e-009
260
root  -0.389357 36.7309 11.522 178.008 -13.4864 -178.471
RightUpLeg  -29.6093 -9.7686 -1.96317
RightLeg  8.98705 -9.55527 3.37854
RightFoot  3.85186 -0.384216 3.08525
RightToes  -1.46203e-006 3.27826e-006 1.63871e-007
Spine  -1.23876 -5.92658 -11.9552
Spine1  8.82715 -8.80751 10.8368
HEad  -2.43198 5.57437 2.32463
LeftShoulder1  0.576568 -1.83183 -2.66837
LeftArm  -3.10601 -73.3173 -58.1539
LeftForeArm  26.4638 -67.6269 -25.6614
LeftHand  -0.874145 1.46358 25.6547
RightShoulder  1.23998 2.15994 15.1437
RightArm  -33.3684 18.3337 22.1919
RightForeArm  159.718 63.6776 159.064
RightHand  -0.202705 -4.32067 -21.0022
LeftUpLeg  28.8934 13.8259 10.3458
LeftLeg  16.5923 5.60702 -0.063713
LeftFoot  -15.3961 -0.61308 -19.8008
LeftToes  1.24767e-006 1.47042e-008 1.32732e-009
261
root  -0.347449 37.0569 8.91315 174.921 -7.96056 -178.515
RightUpLeg  -27.5523 -9.73024 3.10712
RightLeg  15.9919 2.35732 1.40523
RightFoot  7.58462 -0.017054 0.385592
RightToes  -1.46203e-006 3.27826e-006 1.63871e-007
Spine  0.886756 -7.99657 -14.0801
Spine1  5.25979 -11.3945 13.9023
HEad  0.78529 14.022 0.133165
LeftShoulder1  0.397811 -1.42368 0.396182
LeftArm  -19.0333 -73.8528 -43.2996
LeftForeArm  22.0897 -64.4532 -22.0443
LeftHand  -1.01802 0.843615 25.8104
RightShoulder  1.12523 1.76493 14.5621
RightArm  -32.1591 14.8088 23.9505
RightForeArm  159.047 62.5223 159.957
RightHand  -0.353548 -3.59196 -22.3469
LeftUpLeg  26.377 17.4072 13.372
LeftLeg  32.5952 4.95199 4.35912
LeftFoot  6.15837 2.60198 -17.7403
LeftToes  1.24767e-006 1.47042e-008 1.32732e-009
262
root  -0.363845 36.8918 6.84748 171.248 -1.11803 -178.911
RightUpLeg  -25.0109 -2.51365 3.96755
RightLeg  23.7138 2.9437 1.0927
RightFoot  8.10862 0.15974 -0.596161
RightToes  -1.46203e-006 3.27826e-006 1.63871e-007
Spine  2.96216 -9.86745 -13.3905
Spine1  4.84014 -12.9295 14.5584
HEad  3.99814 22.0911 -1.92663
LeftShoulder1  0.415612 -1.80224 0.701368
LeftArm  -30.9379 -69.4028 -29.4294
LeftForeArm  16.7414 -59.4812 -17.8902
LeftHand  -1.15219 0.562042 27.441
RightShoulder  1.1432 1.6915 15.2779
RightArm  -29.9739 12.1413 25.6964
RightForeArm  157.361 64.6753 157.897
RightHand  -0.402162 -3.30907 -22.0078
LeftUpLeg  17.7743 14.1225 9.86914
LeftLeg  51.0012 3.71657 5.37638
LeftFoot  29.2713 5.54758 -15.3792
LeftToes  1.24767e-006 1.47042e-008 1.32732e-009
263
root  -0.512761 36.6621 4.9162 168.025 6.58344 -179.962
RightUpLeg  -22.005 3.2724 4.8746
RightLeg  30.1776 3.51223 1.96185
RightFoot  6.53084 0.578671 -3.39238
RightToes  -1.46203e-006 3.27826e-006 1.63871e-007
Spine  3.42697 -10.9788 -11.6019
Spine1  5.86746 -13.6761 14.9613
HEad  6.57001 29.3107 -4.78112
LeftShoulder1  0.543961 -1.98893 -1.65724
LeftArm  -34.8648 -61.004 -22.1364
LeftForeArm  11.4689 -56.0577 -15.8976
LeftHand  -1.25793 0.380551 28.8369
RightShoulder  1.28839 2.02047 16.7159
RightArm  -26.6135 11.2605 26.2716
RightForeArm  154.585 68.0964 153.878
RightHand  -0.358099 -3.4548 -21.0034
LeftUpLeg  5.96092 13.2748 6.9398
LeftLeg  68.2355 -0.991397 -1.97289
LeftFoot  32.3299 5.58325 -14.3966
LeftToes  1.24767e-006 1.47042e-008 1.32732e-009
264
root  -0.792465 37.1605 2.85183 164.362 15.2103 176.131
RightUpLeg  -16.763 4.83752 3.27554
RightLeg  32.608 8.30664 5.4336
RightFoot  4.96277 1.04926 -7.06295
RightToes  -1.46203e-006 3.27826e-006 1.63871e-007
Spine  2.18388 -10.2648 -10.5279
Spine1  6.3659 -13.0258 14.0661
HEad  8.15629 35.8351 -7.8789
LeftShoulder1  0.771188 -2.15796 -5.82974
LeftArm  -35.7355 -48.7492 -16.1088
LeftForeArm  8.33426 -56.988 -16.8394
LeftHand  -1.18255 0.508727 27.8507
RightShoulder  1.52678 2.59908 18.546
RightArm  -22.247 12.6858 25.8904
RightForeArm  148.951 71.8223 147.488
RightHand  -0.435443 -2.92088 -20.1361
LeftUpLeg  -8.61539 14.9 4.58546
LeftLeg  80.9368 -1.3072 -7.95701
LeftFoot  27.4715 4.72108 -13.8595
LeftToes  1.24767e-006 1.47042e-008 1.32732e-009
265
root  -1.36003 37.881 1.01771 158.889 25.0117 169.651
RightUpLeg  -11.5027 9.70598 -1.11773
RightLeg  33.4261 13.6969 9.31438
RightFoot  3.33095 1.02848 -7.76734
RightToes  -1.46203e-006 3.27826e-006 1.63871e-007
Spine  0.909718 -8.50064 -5.55664
Spine1  7.31729 -10.2075 8.96892
HEad  10.8652 42.3074 -10.9475
LeftShoulder1  1.27344 -2.90395 -12.7691
LeftArm  -35.2224 -33.4899 -9.07135
LeftForeArm  8.60125 -60.8559 -19.9384
LeftHand  -1.14066 0.543154 27.088
RightShoulder  1.98993 3.63384 21.5904
RightArm  -15.5913 18.4922 25.4592
RightForeArm  137.616 76.1072 134.822
RightHand  -0.617358 -1.55433 -18.553
LeftUpLeg  -23.7675 19.1604 3.69305
LeftLeg  88.123 -0.245455 -11.77
LeftFoot  26.9969 4.95815 -14.6941
LeftToes  1.24767e-006 1.47042e-008 1.32732e-009
266
root  -2.10936 38.6972 -0.800871 148.56 35.2325 156.214
RightUpLeg  -8.35577 17.2852 -9.73116
RightLeg  34.3467 17.1598 12.0291
RightFoot  1.51775 0.908521 -7.97673
RightToes  -1.46203e-006 3.27826e-006 1.63871e-007
Spine  0.184817 -5.33481 1.26457
Spine1  8.3497 -4.57845 -2.1255
HEad  13.5287 47.8322 -14.1937
LeftShoulder1  1.77473 -3.36059 -19.352
LeftArm  -33.1748 -16.6725 -4.44091
LeftForeArm  8.38574 -63.336 -22.4346
LeftHand  -1.13649 0.724481 28.0066
RightShoulder  2.44912 4.71065 23.6707
RightArm  -4.73623 28.9647 30.4877
RightForeArm  110.577 79.8096 105.244
RightHand  -0.779315 0.202013 -16.2003
LeftUpLeg  -36.2079 26.9712 1.44853
LeftLeg  93.1482 1.13531 -15.2597
LeftFoot  27.6842 4.72736 -13.8018
LeftToes  1.24767e-006 1.47042e-008 1.32732e-009
267
root  -2.95309 39.5282 -2.52903 131.164 40.9603 133.15
RightUpLeg  -12.1253 13.9014 -23.966
RightLeg  37.6676 15.3551 12.1433
RightFoot  2.31921 1.40313 -11.5309
RightToes  -1.46203e-006 3.27826e-006 1.63871e-007
Spine  1.9538 -1.41932 6.18784
Spine1  7.96917 3.13502 -17.5439
HEad  12.337 50.4276 -18.5619
LeftShoulder1  1.97097 -3.33956 -22.497
LeftArm  -30.4588 -0.944117 -3.33306
LeftForeArm  4.99303 -61.9767 -21.3727
LeftHand  -1.05746 0.99771 27.6836
RightShoulder  2.40733 5.13037 21.6185
RightArm  11.2352 40.7034 46.3854
RightForeArm  67.7493 78.7621 59.7005
RightHand  -0.938667 2.4079 -14.1277
LeftUpLeg  -46.9462 37.0059 -2.06389
LeftLeg  100.397 3.5939 -17.094
LeftFoot  29.4915 6.60981 -18.146
LeftToes  1.24767e-006 1.47042e-008 1.32732e-009
